<svg id="Capa_1" enable-background="new 0 0 512 512" height="512" viewBox="0 0 512 512" width="512" xmlns="http://www.w3.org/2000/svg"><g><path d="m30 356h452v90h-452z" fill="#00767a"/><path d="m256 356h226v90h-226z" fill="#00586d"/><path d="m256 66 100 160-100 160h-256v-320z" fill="#00aa8e"/><path d="m256 66h256v320h-256z" fill="#00767a"/><g><path d="m98.8 66c-.12 58.91-43.53 107.44-98.8 112.86v-112.86z" fill="#00dc7b"/></g><g><path d="m98.8 386h-98.8v-112.86c55.27 5.42 98.68 53.95 98.8 112.86z" fill="#00dc7b"/></g><g><path d="m512 273.14v112.86h-98.8c.12-58.91 43.53-107.44 98.8-112.86z" fill="#00aa8e"/></g><g><path d="m512 66v112.86c-55.27-5.42-98.68-53.95-98.8-112.86z" fill="#00aa8e"/></g><g><path d="m98.75 211h50v30h-50z" fill="#00dc7b"/></g><g><path d="m363.25 211h50v30h-50z" fill="#00aa8e"/></g><path d="m308.96 259.22c0 21.84-16.04 40.33-37.96 46.23v16.7h-30v-16.7c-21.92-5.9-37.96-24.39-37.96-46.23h30c0 10.04 10.3 18.22 22.96 18.22s22.96-8.18 22.96-18.22c0-10.05-10.3-18.22-22.96-18.22-29.2 0-52.96-21.63-52.96-48.22 0-21.84 16.04-40.33 37.96-46.23v-16.7h30v16.7c21.92 5.9 37.96 24.39 37.96 46.23h-30c0-10.04-10.3-18.22-22.96-18.22s-22.96 8.18-22.96 18.22c0 10.05 10.3 18.22 22.96 18.22 29.2 0 52.96 21.63 52.96 48.22z" fill="#00dc7b"/><g fill="#00aa8e"><path d="m308.96 259.22c0 21.84-16.04 40.33-37.96 46.23v16.7h-15v-44.71c12.66 0 22.96-8.18 22.96-18.22 0-10.05-10.3-18.22-22.96-18.22v-30c29.2 0 52.96 21.63 52.96 48.22z"/><path d="m256 174.56v-44.71h15v16.7c21.92 5.9 37.96 24.39 37.96 46.23h-30c0-10.04-10.3-18.22-22.96-18.22z"/></g></g></svg>