<?xml version="1.0" encoding="utf-8"?>
<!-- Generator: Adobe Illustrator 17.0.0, SVG Export Plug-In . SVG Version: 6.00 Build 0)  -->
<!DOCTYPE svg PUBLIC "-//W3C//DTD SVG 1.1//EN" "http://www.w3.org/Graphics/SVG/1.1/DTD/svg11.dtd">
<svg version="1.1" id="Capa_1" xmlns="http://www.w3.org/2000/svg" xmlns:xlink="http://www.w3.org/1999/xlink" x="0px" y="0px"
	 width="870.5px" height="826.5px" viewBox="-100.5 0 870.5 826.5" enable-background="new -100.5 0 870.5 826.5"
	 xml:space="preserve">
<g>
	<path fill="#7FDECF" d="M506.045,562.073c-1.792-2.608-4.754-4.168-7.919-4.168H382.851c-3.049,0-5.917,1.448-7.728,3.899
		c-1.811,2.452-2.35,5.618-1.455,8.532l38.424,124.881c1.241,4.031,4.965,6.781,9.181,6.781h28.819c3.976,0,7.539-2.448,8.966-6.157
		l48.031-124.881C508.228,568.005,507.836,564.682,506.045,562.073z"/>
	<path fill="#7FDECF" d="M229.15,557.906H113.875c-3.165,0-6.127,1.559-7.919,4.168s-2.183,5.933-1.047,8.887l48.031,124.881
		c1.426,3.709,4.992,6.157,8.966,6.157h28.819c4.217,0,7.94-2.75,9.181-6.781l38.424-124.881c0.896-2.913,0.356-6.079-1.455-8.532
		C235.067,559.353,232.199,557.906,229.15,557.906z"/>
	<path fill="#7FDECF" d="M494.871,366.379l-16.024-136.208c-0.764-6.494-7.975-10.399-13.837-7.47l-94.185,47.093
		c-20.96-6.426-42.748-9.682-64.825-9.682s-43.867,3.255-64.825,9.682l-94.185-47.093c-5.861-2.931-13.073,0.979-13.837,7.47
		l-16.024,136.208C96.14,400.88,85.056,440.482,85.056,481.056C85.056,602.885,184.171,702,306,702s220.944-99.115,220.944-220.944
		C526.944,440.48,515.861,400.878,494.871,366.379z"/>
</g>
<g>
	<path fill="#55D4BE" d="M315.607,673.155c-121.829,0-220.944-99.115-220.944-220.944c0-18.769,2.401-37.319,7.028-55.263
		c-10.926,26.532-16.634,55.066-16.634,84.108C85.056,602.885,184.171,702,306,702c102.857,0,189.52-70.649,214.02-165.97
		C486.938,616.413,407.78,673.155,315.607,673.155z"/>
	<path fill="#55D4BE" d="M462.423,337.219l-7.401-62.916c-0.366-3.109-2.223-5.844-4.977-7.331c-2.756-1.487-6.059-1.54-8.861-0.14
		l-51.812,25.907c-3.108,1.554-5.134,4.665-5.299,8.137c-0.165,3.47,1.558,6.761,4.504,8.603l59.215,37.009
		c1.559,0.974,3.325,1.461,5.091,1.461c1.786,0,3.573-0.497,5.141-1.492C461.143,344.48,462.855,340.889,462.423,337.219z"/>
	<path fill="#55D4BE" d="M222.628,292.741l-51.813-25.907c-2.798-1.4-6.103-1.348-8.86,0.14c-2.755,1.487-4.612,4.222-4.977,7.331
		l-7.401,62.916c-0.432,3.67,1.279,7.26,4.401,9.237c1.569,0.995,3.354,1.492,5.141,1.492c1.767,0,3.533-0.486,5.091-1.461
		l59.215-37.009c2.946-1.842,4.669-5.131,4.504-8.603C227.763,297.406,225.736,294.294,222.628,292.741z"/>
</g>
<g>
	<path fill="#24BFB2" d="M411.669,413.811c-5.305,0-9.607-4.301-9.607-9.607c0-5.296-4.309-9.607-9.607-9.607
		s-9.607,4.309-9.607,9.607c0,5.305-4.301,9.607-9.607,9.607s-9.607-4.301-9.607-9.607c0-15.892,12.928-28.819,28.819-28.819
		c15.89,0,28.819,12.927,28.819,28.819C421.275,409.511,416.974,413.811,411.669,413.811z"/>
	<path fill="#24BFB2" d="M238.757,413.811c-5.305,0-9.607-4.301-9.607-9.607c0-5.296-4.309-9.607-9.607-9.607
		s-9.607,4.309-9.607,9.607c0,5.305-4.301,9.607-9.607,9.607s-9.607-4.301-9.607-9.607c0-15.892,12.927-28.819,28.819-28.819
		s28.819,12.927,28.819,28.819C248.362,409.511,244.062,413.811,238.757,413.811z"/>
</g>
<path fill="#D4F4EF" d="M306,413.811c-37.077,0-67.243,23.701-67.243,52.834s30.166,52.834,67.243,52.834
	c37.079,0,67.243-23.701,67.243-52.834S343.079,413.811,306,413.811z"/>
<path fill="#AAE9DF" d="M306,500.268c-32.901,0-60.342-18.667-66.109-43.228c-0.733,3.117-1.134,6.324-1.134,9.607
	c0,29.133,30.166,52.834,67.243,52.834c37.079,0,67.243-23.701,67.243-52.834c0-3.282-0.403-6.489-1.134-9.607
	C366.342,481.6,338.902,500.268,306,500.268z"/>
<path fill="#24BFB2" d="M277.181,481.056c-3.974,0-7.639-2.551-9.01-6.281c-1.365-3.715-0.264-8.066,2.771-10.632
	c3.14-2.655,7.744-3.031,11.257-0.881c3.391,2.074,5.184,6.162,4.399,10.061C285.701,477.759,281.722,481.056,277.181,481.056z"/>
<path fill="#24BFB2" d="M334.819,481.056c-3.973,0-7.642-2.551-9.01-6.281c-1.364-3.716-0.264-8.066,2.771-10.632
	c3.139-2.655,7.744-3.031,11.257-0.881c3.39,2.074,5.184,6.163,4.399,10.061C343.338,477.758,339.359,481.056,334.819,481.056z"/>
<path fill="#24BFB2" d="M305.995,535.48c32.966,0,64.735,9.778,91.872,28.275c4.384,2.987,5.515,8.964,2.527,13.348
	c-2.987,4.383-8.965,5.514-13.348,2.527c-23.935-16.314-51.963-24.938-81.052-24.938c-29.088,0-57.113,8.623-81.046,24.935
	c-4.384,2.986-10.36,1.857-13.348-2.528c-2.987-4.384-1.856-10.36,2.527-13.348C241.264,545.255,273.032,535.48,305.995,535.48z"/>
<path fill="#870404" d="M306,90c-46.127,0-83.655,37.527-83.655,83.655S259.872,257.31,306,257.31s83.655-37.528,83.655-83.655
	S352.127,90,306,90z"/>
<path fill="#DD3E60" d="M306,106.412c-37.077,0-67.243,30.166-67.243,67.243s30.166,67.244,67.243,67.244
	s67.243-30.166,67.243-67.243S343.079,106.412,306,106.412z"/>
<path fill="#5ABCE2" d="M221.287,440.257c-5.878,0-5.878-5.344-11.489-5.344s-5.878,5.344-11.489,5.344
	c-5.611,0-5.878-5.344-11.489-5.344c-0.267,0-0.534,0-0.802,0c1.603,13.092,13.36,22.712,26.719,21.108
	c11.222-1.336,19.772-10.153,21.108-21.108c-0.267,0-0.534,0-0.802,0C227.166,434.913,227.166,440.257,221.287,440.257z"/>
<path fill="#68CCEA" d="M454.047,555.267c-0.018-0.048-0.038-0.093-0.061-0.138l-51.748-99.74c-0.215-0.414-0.642-0.674-1.108-0.674
	s-0.893,0.26-1.108,0.674l-51.748,99.74c-0.024,0.045-0.044,0.091-0.061,0.138c-5.454,14.603-4.896,30.454,1.573,44.634
	c6.468,14.181,18.072,24.993,32.674,30.446c5.981,2.234,12.249,3.465,18.632,3.659c0.013,0,0.025,0,0.038,0s0.025,0,0.038,0
	c6.383-0.195,12.651-1.426,18.631-3.659c14.602-5.453,26.206-16.265,32.675-30.446C458.942,585.72,459.501,569.869,454.047,555.267z
	"/>
<path fill="#5ABCE2" d="M405.12,623.998c-12.404-12.223-19.306-28.547-19.434-45.964c0-0.056,0.003-0.112,0.01-0.168l13.908-121.67
	l-51.329,98.932c-0.024,0.045-0.044,0.091-0.061,0.138c-5.454,14.603-4.896,30.454,1.573,44.634
	c6.468,14.181,18.072,24.993,32.674,30.446c5.981,2.234,12.249,3.465,18.632,3.659c0.013,0,0.025,0,0.038,0s0.025,0,0.038,0
	c4.654-0.142,9.245-0.842,13.709-2.072C411.415,629.63,408.148,626.981,405.12,623.998z"/>
<path fill="#5ABCE2" d="M534.144,582.028c-0.018-0.047-0.038-0.093-0.061-0.138l-25.516-49.179
	c-0.215-0.414-0.642-0.674-1.108-0.674c-0.467,0-0.893,0.26-1.108,0.674l-25.516,49.179c-0.024,0.045-0.044,0.091-0.061,0.138
	c-2.748,7.358-2.467,15.346,0.793,22.491c3.259,7.146,9.106,12.594,16.465,15.342c3.013,1.125,6.172,1.745,9.389,1.844
	c0.013,0,0.025,0,0.038,0s0.025,0,0.038,0c3.215-0.098,6.374-0.719,9.388-1.844C532.073,614.188,539.816,597.216,534.144,582.028z"
	/>
<path fill="#68CCEA" d="M534.144,582.028c-0.018-0.047-0.038-0.093-0.061-0.138l-25.516-49.179
	c-0.215-0.414-0.642-0.674-1.108-0.674c-0.002,0-0.005,0.001-0.008,0.001l-10.044,58.41c-0.01,0.055-0.015,0.11-0.018,0.165
	c-0.425,8.646,2.541,16.938,8.353,23.351c2.49,2.748,5.378,5.005,8.542,6.727c0.877-0.238,1.745-0.511,2.6-0.831
	C532.073,614.188,539.816,597.216,534.144,582.028z"/>
<path fill="#5ABCE2" d="M483.282,659.729l-17.001-32.769c-0.215-0.414-0.642-0.674-1.108-0.674c-0.467,0-0.893,0.26-1.108,0.674
	l-17.003,32.769c-0.024,0.045-0.044,0.092-0.061,0.138c-3.859,10.336,1.409,21.886,11.745,25.747
	c2.051,0.764,4.201,1.187,6.389,1.255c0.013,0,0.026,0,0.039,0c0.013,0,0.025,0,0.039,0c2.186-0.068,4.336-0.489,6.388-1.255
	c10.336-3.86,15.604-15.41,11.744-25.747C483.326,659.819,483.305,659.773,483.282,659.729z"/>
<path fill="#68CCEA" d="M483.343,659.866c-0.018-0.048-0.038-0.093-0.061-0.138l-17.001-32.769
	c-0.215-0.414-0.642-0.674-1.108-0.674c-0.133,0-0.26,0.026-0.383,0.066l-6.98,41.065c-0.01,0.055-0.015,0.113-0.019,0.17
	c-0.365,7.769,3.256,14.819,9.055,19.165c1.621-0.183,3.215-0.564,4.753-1.137C481.935,681.753,487.204,670.203,483.343,659.866z"/>
<path fill="#870404" d="M353.8,176.837c0,6.627-5.373,12-12,12h-71.6c-6.627,0-12-5.373-12-12v-6.365c0-6.627,5.373-12,12-12h71.6
	c6.627,0,12,5.373,12,12V176.837z"/>
<path fill="#870404" d="M78.357,319.922c0,4.524-3.667,8.191-8.191,8.191H21.29c-4.524,0-8.191-3.667-8.191-8.191v-4.345
	c0-4.524,3.667-8.191,8.191-8.191h48.876c4.524,0,8.191,3.667,8.191,8.191V319.922z"/>
<path fill="#870404" d="M597.096,377.557c0,4.524-3.667,8.191-8.191,8.191h-48.876c-4.524,0-8.191-3.667-8.191-8.191v-4.345
	c0-4.524,3.667-8.191,8.191-8.191h48.876c4.524,0,8.191,3.667,8.191,8.191V377.557z"/>
<path fill="#870404" d="M481.821,137.403c0,4.524-3.667,8.191-8.191,8.191h-48.876c-4.524,0-8.191-3.667-8.191-8.191v-4.345
	c0-4.524,3.667-8.191,8.191-8.191h48.876c4.524,0,8.191,3.667,8.191,8.191V137.403z"/>
<g>
	<path fill="#55D4BE" d="M461.522,337.219l-7.401-62.916c-0.366-3.109-2.223-5.844-4.977-7.331c-2.756-1.487-6.059-1.54-8.861-0.14
		l-51.812,25.907c-3.108,1.554-5.134,4.665-5.299,8.137c-0.165,3.47,1.558,6.761,4.504,8.603l59.215,37.009
		c1.559,0.974,3.325,1.461,5.091,1.461c1.786,0,3.573-0.497,5.141-1.492C460.242,344.48,461.954,340.889,461.522,337.219z"/>
	<path fill="#55D4BE" d="M221.727,292.741l-51.813-25.907c-2.798-1.4-6.103-1.348-8.86,0.14c-2.755,1.487-4.612,4.222-4.977,7.331
		l-7.401,62.916c-0.432,3.67,1.279,7.26,4.401,9.237c1.569,0.995,3.354,1.492,5.141,1.492c1.767,0,3.533-0.486,5.091-1.461
		l59.215-37.009c2.946-1.842,4.669-5.131,4.504-8.603C226.862,297.406,224.835,294.294,221.727,292.741z"/>
</g>
<g>
	<path fill="#24BFB2" d="M410.768,413.811c-5.305,0-9.607-4.301-9.607-9.607c0-5.296-4.309-9.607-9.607-9.607
		s-9.607,4.309-9.607,9.607c0,5.305-4.301,9.607-9.607,9.607s-9.607-4.301-9.607-9.607c0-15.892,12.928-28.819,28.819-28.819
		c15.89,0,28.819,12.927,28.819,28.819C420.374,409.511,416.073,413.811,410.768,413.811z"/>
	<path fill="#24BFB2" d="M237.856,413.811c-5.305,0-9.607-4.301-9.607-9.607c0-5.296-4.309-9.607-9.607-9.607
		c-5.298,0-9.607,4.309-9.607,9.607c0,5.305-4.301,9.607-9.607,9.607s-9.607-4.301-9.607-9.607
		c0-15.892,12.927-28.819,28.819-28.819s28.819,12.927,28.819,28.819C247.461,409.511,243.161,413.811,237.856,413.811z"/>
</g>
<path fill="#D4F4EF" d="M305.099,413.811c-37.077,0-67.243,23.701-67.243,52.834s30.166,52.834,67.243,52.834
	c37.079,0,67.243-23.701,67.243-52.834S342.178,413.811,305.099,413.811z"/>
<path fill="#AAE9DF" d="M305.099,500.268c-32.901,0-60.342-18.667-66.109-43.228c-0.733,3.117-1.134,6.324-1.134,9.607
	c0,29.133,30.166,52.834,67.243,52.834c37.079,0,67.243-23.701,67.243-52.834c0-3.282-0.403-6.489-1.134-9.607
	C365.441,481.6,338.001,500.268,305.099,500.268z"/>
<g>
	<path fill="#24BFB2" d="M276.28,481.056c-3.974,0-7.639-2.551-9.01-6.281c-1.365-3.715-0.264-8.066,2.771-10.632
		c3.14-2.655,7.744-3.031,11.257-0.881c3.391,2.074,5.184,6.162,4.399,10.061C284.799,477.759,280.82,481.056,276.28,481.056z"/>
	<path fill="#24BFB2" d="M333.918,481.056c-3.973,0-7.642-2.551-9.01-6.281c-1.364-3.716-0.264-8.066,2.771-10.632
		c3.139-2.655,7.744-3.031,11.257-0.881c3.39,2.074,5.184,6.163,4.399,10.061C342.437,477.758,338.458,481.056,333.918,481.056z"/>
</g>
</svg>
