<?xml version="1.0" encoding="utf-8"?>
<!-- Generator: Adobe Illustrator 17.0.0, SVG Export Plug-In . SVG Version: 6.00 Build 0)  -->
<!DOCTYPE svg PUBLIC "-//W3C//DTD SVG 1.1//EN" "http://www.w3.org/Graphics/SVG/1.1/DTD/svg11.dtd">
<svg version="1.1" id="Capa_1" xmlns="http://www.w3.org/2000/svg" xmlns:xlink="http://www.w3.org/1999/xlink" x="0px" y="0px"
	 width="770px" height="792px" viewBox="-59.5 0 770 792" enable-background="new -59.5 0 770 792" xml:space="preserve">
<g>
	<path fill="#7FDECF" d="M506.045,562.073c-1.792-2.608-4.754-4.168-7.919-4.168H382.851c-3.049,0-5.917,1.448-7.728,3.899
		c-1.811,2.452-2.35,5.618-1.455,8.532l38.424,124.881c1.241,4.031,4.965,6.781,9.181,6.781h28.819c3.976,0,7.539-2.448,8.966-6.157
		l48.031-124.881C508.228,568.005,507.836,564.682,506.045,562.073z"/>
	<path fill="#7FDECF" d="M229.15,557.906H113.875c-3.165,0-6.127,1.559-7.919,4.168c-1.792,2.609-2.183,5.933-1.047,8.887
		l48.031,124.881c1.426,3.709,4.992,6.157,8.966,6.157h28.819c4.217,0,7.94-2.75,9.181-6.781l38.424-124.881
		c0.896-2.913,0.356-6.079-1.455-8.532C235.067,559.353,232.199,557.906,229.15,557.906z"/>
	<path fill="#7FDECF" d="M494.871,366.379l-16.024-136.208c-0.764-6.494-7.975-10.399-13.837-7.47l-94.185,47.093
		c-20.96-6.426-42.748-9.682-64.825-9.682s-43.867,3.255-64.825,9.682l-94.185-47.093c-5.861-2.931-13.073,0.979-13.837,7.47
		l-16.024,136.208C96.14,400.88,85.056,440.482,85.056,481.056C85.056,602.885,184.171,702,306,702s220.944-99.115,220.944-220.944
		C526.944,440.48,515.861,400.878,494.871,366.379z"/>
</g>
<g>
	<path fill="#55D4BE" d="M315.607,673.155c-121.829,0-220.944-99.115-220.944-220.944c0-18.769,2.401-37.319,7.028-55.263
		c-10.926,26.532-16.634,55.066-16.634,84.108C85.056,602.885,184.171,702,306,702c102.857,0,189.52-70.649,214.02-165.97
		C486.938,616.413,407.78,673.155,315.607,673.155z"/>
	<path fill="#55D4BE" d="M462.423,337.219l-7.401-62.916c-0.366-3.109-2.223-5.844-4.977-7.331c-2.756-1.487-6.059-1.54-8.861-0.14
		l-51.812,25.907c-3.108,1.554-5.134,4.665-5.299,8.137c-0.165,3.47,1.558,6.761,4.504,8.603l59.215,37.009
		c1.559,0.974,3.325,1.461,5.091,1.461c1.786,0,3.573-0.497,5.141-1.492C461.143,344.48,462.855,340.889,462.423,337.219z"/>
	<path fill="#55D4BE" d="M222.628,292.741l-51.813-25.907c-2.798-1.4-6.103-1.348-8.86,0.14c-2.755,1.487-4.612,4.222-4.977,7.331
		l-7.401,62.916c-0.432,3.67,1.279,7.26,4.401,9.237c1.569,0.995,3.354,1.492,5.141,1.492c1.767,0,3.533-0.486,5.091-1.461
		l59.215-37.009c2.946-1.842,4.669-5.131,4.504-8.603C227.763,297.406,225.736,294.294,222.628,292.741z"/>
</g>
<g>
	<path fill="#24BFB2" d="M411.669,413.811c-5.305,0-9.607-4.301-9.607-9.607c0-5.296-4.309-9.607-9.607-9.607
		s-9.607,4.309-9.607,9.607c0,5.305-4.301,9.607-9.607,9.607c-5.306,0-9.607-4.301-9.607-9.607
		c0-15.892,12.928-28.819,28.819-28.819c15.89,0,28.819,12.927,28.819,28.819C421.275,409.511,416.974,413.811,411.669,413.811z"/>
	<path fill="#24BFB2" d="M238.757,413.811c-5.305,0-9.607-4.301-9.607-9.607c0-5.296-4.309-9.607-9.607-9.607
		s-9.607,4.309-9.607,9.607c0,5.305-4.301,9.607-9.607,9.607s-9.607-4.301-9.607-9.607c0-15.892,12.927-28.819,28.819-28.819
		s28.819,12.927,28.819,28.819C248.362,409.511,244.062,413.811,238.757,413.811z"/>
</g>
<path fill="#D4F4EF" d="M306,413.811c-37.077,0-67.243,23.701-67.243,52.834s30.166,52.834,67.243,52.834
	c37.079,0,67.243-23.701,67.243-52.834S343.079,413.811,306,413.811z"/>
<path fill="#AAE9DF" d="M306,500.268c-32.901,0-60.342-18.667-66.109-43.228c-0.733,3.117-1.134,6.324-1.134,9.607
	c0,29.133,30.166,52.834,67.243,52.834c37.079,0,67.243-23.701,67.243-52.834c0-3.282-0.403-6.489-1.134-9.607
	C366.342,481.6,338.902,500.268,306,500.268z"/>
<g>
	<path fill="#24BFB2" d="M277.181,481.056c-3.974,0-7.639-2.551-9.01-6.281c-1.365-3.715-0.264-8.066,2.771-10.632
		c3.14-2.655,7.744-3.031,11.257-0.881c3.391,2.074,5.184,6.162,4.399,10.061C285.701,477.759,281.722,481.056,277.181,481.056z"/>
	<path fill="#24BFB2" d="M334.819,481.056c-3.973,0-7.642-2.551-9.01-6.281c-1.364-3.716-0.264-8.066,2.771-10.632
		c3.139-2.655,7.744-3.031,11.257-0.881c3.39,2.074,5.184,6.163,4.399,10.061C343.338,477.758,339.359,481.056,334.819,481.056z"/>
	<path fill="#24BFB2" d="M306,565.299c-32.966,0-64.735-9.778-91.872-28.275c-4.384-2.987-5.515-8.964-2.527-13.348
		c2.987-4.383,8.965-5.514,13.348-2.527c23.935,16.314,51.963,24.938,81.052,24.938c29.088,0,57.113-8.623,81.046-24.935
		c4.384-2.986,10.36-1.857,13.348,2.528c2.987,4.384,1.856,10.36-2.527,13.348C370.731,555.524,338.963,565.299,306,565.299z"/>
</g>
<path fill="#FBDC40" d="M306,90c-46.127,0-83.655,37.527-83.655,83.655S259.872,257.31,306,257.31s83.655-37.528,83.655-83.655
	S352.127,90,306,90z"/>
<path fill="#FAD000" d="M306,106.412c-37.077,0-67.243,30.166-67.243,67.243s30.166,67.244,67.243,67.244
	s67.243-30.166,67.243-67.243S343.079,106.412,306,106.412z"/>
<path fill="#FA892D" d="M315.607,164.048h-19.212v-19.212l9.486-0.006c0.041,0,0.079,0.006,0.12,0.006
	c0.042,0,0.081-0.006,0.123-0.006l9.482-0.006c0,0,0,0.004,0,0.012c0,5.305,4.301,9.607,9.607,9.607
	c5.306,0,9.607-4.301,9.607-9.607c0-10.593-8.619-19.212-19.212-19.212c0-5.305-4.301-9.607-9.607-9.607
	c-5.305,0-9.607,4.301-9.607,9.607c-10.593,0-19.212,8.619-19.212,19.212v19.212c0,10.593,8.619,19.212,19.212,19.212h19.212v19.212
	h-19.212c0-5.305-4.301-9.607-9.607-9.607c-5.305,0-9.607,4.301-9.607,9.607c0,10.593,8.619,19.212,19.212,19.212
	c0,5.305,4.301,9.607,9.607,9.607c5.305,0,9.607-4.301,9.607-9.607c10.593,0,19.212-8.619,19.212-19.212v-19.211
	C334.819,172.667,326.201,164.048,315.607,164.048z"/>
<g>
	<path fill="#FBA761" d="M584.582,365.78h-9.607v-9.607c0-5.305-4.301-9.607-9.607-9.607c-5.305,0-9.607,4.301-9.607,9.607v9.607
		h-9.607c-5.305,0-9.607,4.301-9.607,9.607c0,5.305,4.301,9.607,9.607,9.607h9.607v9.607c0,5.305,4.301,9.607,9.607,9.607
		c5.305,0,9.607-4.301,9.607-9.607v-9.607h9.607c5.305,0,9.607-4.301,9.607-9.607C594.189,370.082,589.887,365.78,584.582,365.78z"
		/>
	<path fill="#FBA761" d="M469.307,125.624H459.7v-9.607c0-5.305-4.301-9.607-9.607-9.607c-5.305,0-9.607,4.301-9.607,9.607v9.607
		h-9.607c-5.305,0-9.607,4.301-9.607,9.607s4.301,9.607,9.607,9.607h9.607v9.607c0,5.305,4.301,9.607,9.607,9.607
		c5.305,0,9.607-4.301,9.607-9.607v-9.607h9.607c5.305,0,9.607-4.301,9.607-9.607S474.612,125.624,469.307,125.624z"/>
	<path fill="#FBA761" d="M65.843,308.143h-9.607v-9.607c0-5.305-4.301-9.607-9.607-9.607s-9.607,4.301-9.607,9.607v9.607h-9.607
		c-5.305,0-9.607,4.301-9.607,9.607c0,5.305,4.301,9.607,9.607,9.607h9.607v9.607c0,5.305,4.301,9.607,9.607,9.607
		s9.607-4.301,9.607-9.607v-9.607h9.607c5.305,0,9.607-4.301,9.607-9.607C75.449,312.444,71.15,308.143,65.843,308.143z"/>
</g>
<path fill="#E2A63B" d="M183.829,731.325v21.735c0,7.382-19.685,13.533-43.881,13.533s-43.47-5.946-43.47-13.328v-2.46l-0.41-17.224
	h0.205c3.281,6.357,21.325,11.278,43.06,11.278s44.086-6.151,44.086-13.533L183.829,731.325L183.829,731.325z"/>
<path fill="#F4B844" d="M138.718,650.535v21.53h-0.41c0,7.587-20.3,13.533-44.291,13.533c-9.227,0.205-18.66-0.82-27.682-3.076
	l-0.41,0.41c-4.511-3.691-9.637-6.561-15.174-8.407v-0.41l-0.615-22.761c1.435,6.972,20.505,12.508,43.676,12.508
	s44.496-5.946,44.496-13.328C138.308,650.535,138.718,650.535,138.718,650.535z"/>
<path fill="#FEDB41" d="M138.718,650.945L138.718,650.945c0,7.382-20.3,13.328-44.496,13.328s-42.445-5.536-43.881-12.508
	c0-0.205-0.205-0.615-0.205-0.82c0-7.382,19.685-13.533,44.086-13.533C118.623,637.207,138.718,643.358,138.718,650.945z"/>
<path fill="#F4B844" d="M96.273,733.58L96.273,733.58l-0.205-4.511l-0.41-18.454c1.435,6.972,20.505,12.508,43.676,12.508
	s43.676-5.946,44.291-13.123h0.205v21.325h-0.41c0,7.382-19.89,13.533-44.086,13.533C115.138,744.858,99.554,739.937,96.273,733.58z
	"/>
<path fill="#E2A63B" d="M66.951,747.318c5.536-5.126,9.843-11.688,12.098-18.864h1.025c4.511,0.41,9.022,0.615,13.944,0.615h2.05
	v4.511l0.41,17.224h-2.256c-9.022,0.205-17.839-0.82-26.656-2.871L66.951,747.318z"/>
<path fill="#F4B844" d="M96.273,708.974v1.025l0.41,19.07h-2.051c-5.126,0-9.843-0.205-14.353-0.615h-1.025
	c1.435-4.306,2.05-8.817,2.05-13.328c0-3.076-0.41-5.946-1.025-8.817h1.025c4.306,0.41,8.612,0.615,13.328,0.615l1.845,1.025
	C96.273,708.359,96.273,708.769,96.273,708.974z"/>
<path fill="#E2A63B" d="M66.336,682.523c9.022,2.256,18.454,3.281,27.682,3.076c23.991,0,44.291-5.946,44.291-13.533h0.41v24.196
	c-22.35,0-40.6,5.331-42.855,12.098l-1.845-1.025c-4.511,0-8.817-0.205-12.918-0.615h-1.025
	c-1.845-9.432-6.767-17.839-14.148-23.991L66.336,682.523z"/>
<g>
	<path fill="#FEDB41" d="M80.484,706.719L80.484,706.719c-2.05-9.432-7.177-18.044-14.559-24.401
		c-4.511-4.101-9.843-6.972-15.584-8.612c-4.101-1.435-8.612-2.05-12.918-2.05C13.023,671.45-6.867,690.93-7.072,715.33
		c-0.205,24.401,19.275,44.291,43.676,44.496c11.278,0,21.94-4.101,30.347-11.688c5.742-5.331,10.047-12.098,12.303-19.48
		c1.435-4.306,2.05-8.612,2.05-13.123C81.304,712.665,80.484,709.589,80.484,706.719z"/>
	<path fill="#FEDB41" d="M183.624,709.589v0.41c-0.615,7.177-20.505,13.123-44.291,13.123s-42.24-5.536-43.676-12.508v-1.025
		c0-0.41,0-0.82,0.205-1.23c2.256-6.767,20.505-12.098,42.855-12.098h0.615C163.529,696.261,183.624,702.207,183.624,709.589z"/>
</g>
<path fill="#E2A63B" d="M37.424,710.204c-3.691,0-6.767-3.076-6.767-6.767s3.076-6.767,6.767-6.767s6.767,3.076,6.767,6.767
	c0,2.256,1.845,4.101,4.101,4.101c2.256,0,4.101-1.845,4.101-4.101c0-6.561-4.511-12.508-10.868-14.353v-1.641
	c0-2.256-1.845-4.101-4.101-4.101c-2.256,0-4.101,1.845-4.101,4.101v1.641c-6.561,1.641-11.073,7.587-10.868,14.353
	c0,8.202,6.767,14.969,14.969,14.969c3.691,0,6.767,3.076,6.767,6.767s-3.076,6.767-6.767,6.767l0,0
	c-3.691,0-6.767-3.076-6.767-6.767c0-2.256-1.845-4.101-4.101-4.101s-4.101,1.845-4.101,4.101c0,6.767,4.511,12.508,10.868,14.353
	v3.281c0,2.256,1.845,4.101,4.101,4.101s4.101-1.845,4.101-4.101v-3.281c7.997-2.256,12.508-10.662,10.047-18.66
	C49.727,714.715,43.985,710.204,37.424,710.204z"/>
<g>
	<path fill="#E2A63B" d="M440.488,725.586h0.41c0,7.382,22.351,13.533,44.086,13.533c21.735,0,39.78-4.921,43.06-11.278h0.205
		l-0.41,17.224v2.46c0,7.382-19.275,13.328-43.47,13.328c-24.196,0-43.881-6.152-43.881-13.533V725.586L440.488,725.586z"/>
	<path fill="#F4B844" d="M486.009,644.796c0,7.382,21.325,13.328,44.496,13.328c23.171,0,42.24-5.536,43.676-12.508l-0.615,22.761
		v0.41c-5.536,1.845-10.662,4.716-15.174,8.407l-0.41-0.41c-9.022,2.256-18.455,3.281-27.682,3.076
		c-23.991,0-44.291-5.946-44.291-13.533h-0.41v-21.53C485.599,644.796,486.009,644.796,486.009,644.796z"/>
	<path fill="#FEDB41" d="M530.095,631.673c24.401,0,44.086,6.152,44.086,13.533c0,0.205-0.205,0.615-0.205,0.82
		c-1.435,6.972-19.685,12.508-43.881,12.508c-24.196,0-44.496-5.946-44.496-13.328l0,0
		C485.599,637.619,505.694,631.468,530.095,631.673z"/>
	<path fill="#F4B844" d="M484.984,739.119c-24.196,0-44.086-6.152-44.086-13.533h-0.41v-21.325h0.205
		c0.615,7.177,21.12,13.123,44.291,13.123s42.24-5.536,43.676-12.508l-0.41,18.454l-0.205,4.511l0,0
		C524.764,734.198,509.18,739.119,484.984,739.119z"/>
	<path fill="#E2A63B" d="M556.752,742.195c-8.817,2.05-17.634,3.075-26.656,2.871h-2.256l0.41-17.224v-4.511h2.05
		c4.921,0,9.432-0.205,13.944-0.615h1.025c2.255,7.176,6.561,13.738,12.098,18.864L556.752,742.195z"/>
	<path fill="#F4B844" d="M527.84,702.21l1.845-1.025c4.716,0,9.022-0.205,13.328-0.615h1.025c-0.615,2.871-1.025,5.741-1.025,8.817
		c0,4.511,0.615,9.022,2.05,13.328h-1.025c-4.511,0.41-9.227,0.615-14.353,0.615h-2.051l0.41-19.07v-1.025
		C528.045,703.03,528.045,702.62,527.84,702.21z"/>
	<path fill="#E2A63B" d="M558.391,676.989c-7.382,6.152-12.303,14.559-14.148,23.991h-1.025c-4.101,0.41-8.407,0.615-12.918,0.615
		l-1.845,1.025c-2.256-6.766-20.505-12.098-42.855-12.098v-24.196h0.41c0,7.587,20.3,13.533,44.291,13.533
		c9.228,0.205,18.66-0.82,27.682-3.076L558.391,676.989z"/>
	<g>
		<path fill="#FEDB41" d="M543.013,709.796c0,4.511,0.615,8.817,2.05,13.123c2.256,7.382,6.561,14.148,12.303,19.48
			c8.407,7.587,19.069,11.688,30.347,11.688c24.401-0.205,43.881-20.095,43.676-44.496c-0.205-24.401-20.095-43.881-44.496-43.675
			c-4.306,0-8.817,0.615-12.918,2.05c-5.741,1.641-11.073,4.511-15.584,8.612c-7.382,6.357-12.508,14.968-14.559,24.401l0,0
			C543.833,703.85,543.013,706.926,543.013,709.796z"/>
		<path fill="#FEDB41" d="M484.984,690.523h0.615c22.35,0,40.6,5.331,42.855,12.098c0.205,0.41,0.205,0.82,0.205,1.23v1.025
			c-1.435,6.972-19.89,12.508-43.676,12.508c-23.786,0-43.676-5.946-44.291-13.123v-0.41
			C440.693,696.469,460.788,690.522,484.984,690.523z"/>
	</g>
</g>
<path fill="#E2A63B" d="M587.206,704.771c-3.691,0-6.767-3.076-6.767-6.767c0-3.691,3.076-6.767,6.767-6.767
	s6.767,3.076,6.767,6.767c0,2.256,1.845,4.101,4.101,4.101c2.256,0,4.101-1.845,4.101-4.101c0-6.561-4.511-12.508-10.868-14.353
	v-1.641c0-2.256-1.845-4.101-4.101-4.101c-2.256,0-4.101,1.845-4.101,4.101v1.641c-6.561,1.641-11.073,7.587-10.868,14.353
	c0,8.202,6.767,14.969,14.969,14.969c3.691,0,6.767,3.076,6.767,6.767s-3.076,6.767-6.767,6.767l0,0
	c-3.691,0-6.767-3.076-6.767-6.767c0-2.256-1.845-4.101-4.101-4.101s-4.101,1.845-4.101,4.101c0,6.767,4.511,12.508,10.868,14.353
	v3.281c0,2.256,1.845,4.101,4.101,4.101s4.101-1.845,4.101-4.101v-3.281c7.997-2.256,12.508-10.662,10.047-18.66
	C599.509,709.282,593.767,704.771,587.206,704.771z"/>
</svg>
