<?xml version="1.0" encoding="iso-8859-1"?>
<!-- Generator: Adobe Illustrator 19.0.0, SVG Export Plug-In . SVG Version: 6.00 Build 0)  -->
<svg version="1.1" id="Capa_1" xmlns="http://www.w3.org/2000/svg" xmlns:xlink="http://www.w3.org/1999/xlink" x="0px" y="0px"
	 viewBox="0 0 512 512" style="enable-background:new 0 0 512 512;" xml:space="preserve">
<g>
	<path style="fill:#7FDECF;" d="M423.358,394.937c-1.499-2.182-3.977-3.487-6.625-3.487h-96.439c-2.551,0-4.95,1.211-6.465,3.262
		c-1.515,2.051-1.966,4.7-1.217,7.138l32.146,104.476c1.038,3.372,4.154,5.673,7.681,5.673h24.11c3.326,0,6.307-2.048,7.501-5.151
		l40.183-104.476C425.184,399.9,424.856,397.12,423.358,394.937z"/>
	<path style="fill:#7FDECF;" d="M191.707,391.451H95.268c-2.648,0-5.126,1.304-6.625,3.487c-1.499,2.183-1.826,4.964-0.876,7.435
		l40.183,104.476c1.193,3.103,4.176,5.151,7.501,5.151h24.11c3.528,0,6.643-2.301,7.681-5.673l32.146-104.476
		c0.75-2.437,0.298-5.086-1.217-7.138C196.657,392.661,194.258,391.451,191.707,391.451z"/>
	<path style="fill:#7FDECF;" d="M414.01,231.219l-13.406-113.952c-0.639-5.433-6.672-8.7-11.576-6.249l-78.795,39.398
		c-17.535-5.376-35.763-8.1-54.233-8.1s-36.699,2.723-54.233,8.1l-78.795-39.398c-4.903-2.452-10.937,0.819-11.576,6.249
		L97.99,231.219c-17.559,28.864-26.832,61.995-26.832,95.939C71.158,429.08,154.078,512,256,512s184.842-82.92,184.842-184.842
		C440.842,293.212,431.57,260.081,414.01,231.219z"/>
</g>
<g>
	<path style="fill:#55D4BE;" d="M264.037,487.868c-101.922,0-184.842-82.92-184.842-184.842c0-15.702,2.009-31.221,5.88-46.233
		c-9.141,22.197-13.916,46.068-13.916,70.365C71.158,429.08,154.078,512,256,512c86.05,0,158.553-59.105,179.049-138.851
		C407.373,440.398,341.149,487.868,264.037,487.868z"/>
	<path style="fill:#55D4BE;" d="M386.864,206.824l-6.192-52.636c-0.306-2.601-1.86-4.889-4.164-6.133
		c-2.306-1.244-5.069-1.288-7.413-0.117l-43.346,21.674c-2.6,1.3-4.295,3.903-4.433,6.807c-0.138,2.903,1.303,5.656,3.768,7.197
		l49.539,30.962c1.304,0.815,2.782,1.222,4.259,1.222c1.494,0,2.989-0.416,4.301-1.248
		C385.793,212.898,387.225,209.894,386.864,206.824z"/>
	<path style="fill:#55D4BE;" d="M186.251,169.613l-43.347-21.674c-2.341-1.171-5.106-1.128-7.412,0.117
		c-2.305,1.244-3.858,3.532-4.164,6.133l-6.192,52.636c-0.361,3.07,1.07,6.074,3.682,7.728c1.313,0.832,2.806,1.248,4.301,1.248
		c1.478,0,2.956-0.407,4.259-1.222l49.539-30.962c2.465-1.541,3.906-4.293,3.768-7.197
		C190.547,173.516,188.851,170.913,186.251,169.613z"/>
</g>
<g>
	<path style="fill:#24BFB2;" d="M344.403,270.901c-4.438,0-8.037-3.598-8.037-8.037c0-4.431-3.605-8.037-8.037-8.037
		s-8.037,3.605-8.037,8.037c0,4.438-3.598,8.037-8.037,8.037s-8.037-3.598-8.037-8.037c0-13.295,10.816-24.11,24.11-24.11
		s24.11,10.815,24.11,24.11C352.439,267.303,348.841,270.901,344.403,270.901z"/>
	<path style="fill:#24BFB2;" d="M199.744,270.901c-4.438,0-8.037-3.598-8.037-8.037c0-4.431-3.605-8.037-8.037-8.037
		s-8.037,3.605-8.037,8.037c0,4.438-3.598,8.037-8.037,8.037s-8.037-3.598-8.037-8.037c0-13.295,10.815-24.11,24.11-24.11
		s24.11,10.815,24.11,24.11C207.78,267.303,204.183,270.901,199.744,270.901z"/>
</g>
<path style="fill:#D4F4EF;" d="M256,270.901c-31.019,0-56.256,19.828-56.256,44.201s25.237,44.201,56.256,44.201
	c31.02,0,56.256-19.828,56.256-44.201S287.02,270.901,256,270.901z"/>
<path style="fill:#AAE9DF;" d="M256,343.231c-27.525,0-50.482-15.617-55.307-36.165c-0.613,2.608-0.949,5.291-0.949,8.037
	c0,24.373,25.237,44.201,56.256,44.201c31.02,0,56.256-19.828,56.256-44.201c0-2.746-0.337-5.429-0.949-8.037
	C306.482,327.613,283.526,343.231,256,343.231z"/>
<g>
	<path style="fill:#24BFB2;" d="M231.89,327.158c-3.325,0-6.391-2.134-7.538-5.255c-1.142-3.108-0.221-6.748,2.318-8.895
		c2.627-2.221,6.479-2.536,9.418-0.737c2.837,1.735,4.337,5.155,3.68,8.417C239.018,324.4,235.689,327.158,231.89,327.158z"/>
	<path style="fill:#24BFB2;" d="M280.11,327.158c-3.324,0-6.393-2.134-7.538-5.255c-1.141-3.109-0.221-6.748,2.318-8.895
		c2.626-2.221,6.479-2.536,9.418-0.737c2.836,1.735,4.337,5.156,3.68,8.417C287.237,324.399,283.908,327.158,280.11,327.158z"/>
	<path style="fill:#24BFB2;" d="M256,397.636c-27.579,0-54.157-8.18-76.86-23.655c-3.668-2.499-4.614-7.499-2.114-11.167
		c2.499-3.667,7.5-4.613,11.167-2.114c20.024,13.648,43.472,20.863,67.808,20.863c24.335,0,47.781-7.214,67.803-20.861
		c3.668-2.498,8.667-1.554,11.167,2.115c2.499,3.668,1.553,8.667-2.114,11.167C310.154,389.458,283.577,397.636,256,397.636z"/>
</g>
<path style="fill:#FBDC40;" d="M256,0c-38.59,0-69.986,31.395-69.986,69.986s31.395,69.986,69.986,69.986
	s69.986-31.396,69.986-69.986S294.59,0,256,0z"/>
<path style="fill:#FAD000;" d="M256,13.73c-31.019,0-56.256,25.237-56.256,56.256s25.237,56.256,56.256,56.256
	s56.256-25.237,56.256-56.256S287.02,13.73,256,13.73z"/>
<path style="fill:#FA892D;" d="M264.037,61.949h-16.073V45.876l7.936-0.005c0.034,0,0.066,0.005,0.1,0.005
	c0.035,0,0.068-0.005,0.103-0.005l7.933-0.005c0,0,0,0.003,0,0.01c0,4.438,3.598,8.037,8.037,8.037s8.037-3.598,8.037-8.037
	c0-8.862-7.211-16.073-16.073-16.073c0-4.438-3.598-8.037-8.037-8.037c-4.438,0-8.037,3.598-8.037,8.037
	c-8.862,0-16.073,7.211-16.073,16.073v16.073c0,8.862,7.211,16.073,16.073,16.073h16.073v16.073h-16.073
	c0-4.438-3.598-8.037-8.037-8.037c-4.438,0-8.037,3.598-8.037,8.037c0,8.862,7.211,16.073,16.073,16.073
	c0,4.438,3.598,8.037,8.037,8.037c4.438,0,8.037-3.598,8.037-8.037c8.862,0,16.073-7.211,16.073-16.073V78.023
	C280.11,69.159,272.9,61.949,264.037,61.949z"/>
<g>
	<path style="fill:#FBA761;" d="M489.062,230.718h-8.037v-8.037c0-4.438-3.598-8.037-8.037-8.037c-4.438,0-8.037,3.598-8.037,8.037
		v8.037h-8.037c-4.438,0-8.037,3.598-8.037,8.037c0,4.438,3.598,8.037,8.037,8.037h8.037v8.037c0,4.438,3.598,8.037,8.037,8.037
		c4.438,0,8.037-3.598,8.037-8.037v-8.037h8.037c4.438,0,8.037-3.598,8.037-8.037C497.099,234.317,493.5,230.718,489.062,230.718z"
		/>
	<path style="fill:#FBA761;" d="M392.623,29.803h-8.037v-8.037c0-4.438-3.598-8.037-8.037-8.037c-4.438,0-8.037,3.598-8.037,8.037
		v8.037h-8.037c-4.438,0-8.037,3.598-8.037,8.037s3.598,8.037,8.037,8.037h8.037v8.037c0,4.438,3.598,8.037,8.037,8.037
		c4.438,0,8.037-3.598,8.037-8.037v-8.037h8.037c4.438,0,8.037-3.598,8.037-8.037S397.061,29.803,392.623,29.803z"/>
	<path style="fill:#FBA761;" d="M55.084,182.499h-8.037v-8.037c0-4.438-3.598-8.037-8.037-8.037s-8.037,3.598-8.037,8.037v8.037
		h-8.037c-4.438,0-8.037,3.598-8.037,8.037c0,4.438,3.598,8.037,8.037,8.037h8.037v8.037c0,4.438,3.598,8.037,8.037,8.037
		s8.037-3.598,8.037-8.037v-8.037h8.037c4.438,0,8.037-3.598,8.037-8.037C63.121,186.097,59.524,182.499,55.084,182.499z"/>
</g>
<g>
</g>
<g>
</g>
<g>
</g>
<g>
</g>
<g>
</g>
<g>
</g>
<g>
</g>
<g>
</g>
<g>
</g>
<g>
</g>
<g>
</g>
<g>
</g>
<g>
</g>
<g>
</g>
<g>
</g>
</svg>
